<svg width="216" height="54" viewBox="0 0 216 54" fill="none" xmlns="http://www.w3.org/2000/svg">
<g clip-path="url(#clip0_73_81)">
<path d="M27.5001 5.68143L49 50.2278H6L27.5001 5.68143Z" stroke="black" stroke-width="3"/>
<path d="M27.5001 0.248932L55 53.4873H0L27.5001 0.248932Z" stroke="black"/>
<path d="M27.6667 27.4169C31.5009 27.5047 34.9102 28.6275 37.321 30.3215C39.746 32.0256 41.0414 34.2059 40.999 36.4123C40.9567 38.6187 39.5788 40.7379 37.0905 42.3295C34.6168 43.9116 31.1675 44.8776 27.3333 44.7898C23.4991 44.702 20.0898 43.5794 17.679 41.8853C15.254 40.181 13.9586 38.0008 14.001 35.7945C14.0433 33.5881 15.4212 31.469 17.9095 29.8773C20.3832 28.2951 23.8325 27.3291 27.6667 27.4169Z" stroke="black" stroke-width="3"/>
</g>
<path d="M70 32.8873C70.112 32.8873 70.224 32.7657 70.336 32.5223C70.448 32.2789 70.504 31.8791 70.504 31.3228V18.8063C70.504 18.25 70.448 17.8589 70.336 17.6329C70.224 17.3895 70.112 17.2592 70 17.2418H77.536C78.96 17.2418 80.144 17.3895 81.088 17.6851C82.048 17.9806 82.816 18.3891 83.392 18.9106C83.984 19.4322 84.432 20.0319 84.736 20.7099C85.04 21.3705 85.24 22.0745 85.336 22.822C85.448 23.5695 85.504 24.3257 85.504 25.0906C85.504 25.786 85.448 26.5074 85.336 27.2549C85.24 27.9851 85.032 28.6891 84.712 29.3671C84.408 30.0277 83.96 30.6274 83.368 31.1663C82.792 31.6878 82.024 32.1051 81.064 32.418C80.12 32.7309 78.944 32.8873 77.536 32.8873H70ZM74.152 30.7752H77.104C79.152 30.7752 80.616 30.3406 81.496 29.4714C82.376 28.6022 82.816 27.2028 82.816 25.2732V24.8038C82.816 23.4478 82.64 22.3787 82.288 21.5965C81.936 20.7968 81.344 20.2318 80.512 19.9015C79.68 19.5538 78.544 19.38 77.104 19.38H74.152C73.688 19.38 73.408 19.4148 73.312 19.4843C73.232 19.5365 73.192 19.7451 73.192 20.1101V29.9929C73.192 30.3754 73.232 30.6013 73.312 30.6709C73.408 30.7404 73.688 30.7752 74.152 30.7752ZM89.151 18.1805C88.687 18.1805 88.327 18.0414 88.071 17.7633C87.815 17.4678 87.687 17.1288 87.687 16.7463C87.687 16.3465 87.807 16.0075 88.047 15.7294C88.303 15.4512 88.671 15.3121 89.151 15.3121C89.631 15.3121 89.991 15.4512 90.231 15.7294C90.487 16.0075 90.615 16.3465 90.615 16.7463C90.615 17.1288 90.487 17.4678 90.231 17.7633C89.975 18.0414 89.615 18.1805 89.151 18.1805ZM87.687 32.8873C87.799 32.8873 87.903 32.7657 87.999 32.5223C88.111 32.2789 88.167 31.8791 88.167 31.3228V22.2484C88.167 21.6921 88.111 21.3009 87.999 21.0749C87.903 20.8316 87.799 20.7012 87.687 20.6838H90.615V31.3228C90.615 31.8791 90.663 32.2789 90.759 32.5223C90.871 32.7657 90.983 32.8873 91.095 32.8873H87.687ZM99.004 39.2499C97.612 39.2499 96.396 39.1021 95.356 38.8066C94.316 38.511 93.572 38.2242 93.124 37.9461L93.604 35.5992V34.843C93.828 35.2081 94.18 35.5905 94.66 35.9904C95.14 36.3902 95.74 36.7292 96.46 37.0073C97.18 37.2855 97.996 37.4246 98.908 37.4246C99.98 37.4246 100.772 37.2333 101.284 36.8509C101.812 36.4684 102.156 35.9382 102.316 35.2602C102.492 34.5823 102.58 33.8087 102.58 32.9395V31.9747L102.628 31.5053L102.58 31.4532C102.26 31.8878 101.764 32.2789 101.092 32.6266C100.436 32.9743 99.628 33.1481 98.668 33.1481C97.148 33.1481 95.964 32.87 95.116 32.3137C94.284 31.7574 93.7 31.0012 93.364 30.0451C93.044 29.0889 92.884 28.0111 92.884 26.8116C92.884 25.5948 93.044 24.5083 93.364 23.5521C93.7 22.596 94.284 21.8398 95.116 21.2835C95.964 20.7099 97.148 20.423 98.668 20.423C99.628 20.423 100.428 20.5621 101.068 20.8403C101.708 21.1184 102.212 21.4748 102.58 21.9094L102.628 21.8833L102.58 21.3878V20.6838H105.508C105.396 20.7012 105.284 20.8316 105.172 21.0749C105.076 21.3183 105.028 21.7268 105.028 22.3005V32.2876C105.028 34.8083 104.532 36.5988 103.54 37.6592C102.564 38.7197 101.052 39.2499 99.004 39.2499ZM98.836 31.2967C99.828 31.2967 100.596 31.1316 101.14 30.8013C101.684 30.4536 102.06 29.9495 102.268 29.2889C102.476 28.6109 102.58 27.7851 102.58 26.8116C102.58 25.8555 102.468 25.0385 102.244 24.3605C102.036 23.6825 101.66 23.161 101.116 22.7959C100.588 22.4309 99.828 22.2484 98.836 22.2484C97.492 22.2484 96.564 22.6656 96.052 23.5C95.556 24.3344 95.308 25.447 95.308 26.8377C95.308 28.2284 95.556 29.3236 96.052 30.1233C96.548 30.9056 97.476 31.2967 98.836 31.2967ZM109.284 18.1805C108.82 18.1805 108.46 18.0414 108.204 17.7633C107.948 17.4678 107.82 17.1288 107.82 16.7463C107.82 16.3465 107.94 16.0075 108.18 15.7294C108.436 15.4512 108.804 15.3121 109.284 15.3121C109.764 15.3121 110.124 15.4512 110.364 15.7294C110.62 16.0075 110.748 16.3465 110.748 16.7463C110.748 17.1288 110.62 17.4678 110.364 17.7633C110.108 18.0414 109.748 18.1805 109.284 18.1805ZM107.82 32.8873C107.932 32.8873 108.036 32.7657 108.132 32.5223C108.244 32.2789 108.3 31.8791 108.3 31.3228V22.2484C108.3 21.6921 108.244 21.3009 108.132 21.0749C108.036 20.8316 107.932 20.7012 107.82 20.6838H110.748V31.3228C110.748 31.8791 110.796 32.2789 110.892 32.5223C111.004 32.7657 111.116 32.8873 111.228 32.8873H107.82ZM117.961 33.1481C116.857 33.1481 116.057 32.896 115.561 32.3919C115.065 31.8704 114.817 31.0273 114.817 29.8625V22.5091H112.657V20.6838C113.393 20.6838 113.969 20.5882 114.385 20.397C114.801 20.1883 115.097 19.832 115.273 19.3278C115.449 18.8237 115.537 18.1197 115.537 17.2157H117.265V20.6838H121.849C121.737 20.8576 121.625 21.1184 121.513 21.4661C121.417 21.7964 121.369 22.144 121.369 22.5091H117.265V29.4714C117.265 30.2711 117.401 30.7752 117.673 30.9838C117.945 31.1924 118.289 31.2967 118.705 31.2967C119.297 31.2967 119.833 31.1055 120.313 30.723C120.793 30.3406 121.137 29.9668 121.345 29.6018V30.4101L121.585 31.8964C121.345 32.1746 120.913 32.4527 120.289 32.7309C119.665 33.009 118.889 33.1481 117.961 33.1481ZM127.779 33.1481C126.035 33.1481 124.811 32.8091 124.107 32.1311C123.403 31.4358 123.051 30.5057 123.051 29.341C123.051 28.1241 123.475 27.168 124.323 26.4727C125.171 25.7773 126.467 25.4296 128.211 25.4296C129.459 25.4296 130.459 25.5687 131.211 25.8468C131.963 26.1076 132.467 26.3336 132.723 26.5248C132.707 24.9776 132.435 23.8824 131.907 23.2392C131.395 22.5786 130.483 22.2484 129.171 22.2484C128.227 22.2484 127.379 22.37 126.627 22.6134C125.891 22.8394 125.299 23.0915 124.851 23.3696C124.403 23.6304 124.123 23.8216 124.011 23.9433V23.4218L123.771 21.4661C123.915 21.3965 124.227 21.2835 124.707 21.1271C125.187 20.9532 125.819 20.7968 126.603 20.6577C127.387 20.5013 128.307 20.423 129.363 20.423C131.379 20.423 132.851 20.8924 133.779 21.8311C134.707 22.7525 135.171 24.178 135.171 26.1076V31.3228C135.171 31.8095 135.219 32.1659 135.315 32.3919C135.427 32.6005 135.539 32.7657 135.651 32.8873H132.723V32.1051L132.771 31.6096L132.723 31.5835C132.195 32.1051 131.507 32.4962 130.659 32.757C129.811 33.0177 128.851 33.1481 127.779 33.1481ZM128.571 31.2967C129.867 31.2967 130.883 31.0968 131.619 30.697C132.355 30.2797 132.723 29.7582 132.723 29.1324C132.723 28.6109 132.403 28.1676 131.763 27.8025C131.139 27.4375 130.163 27.2549 128.835 27.2549C127.603 27.2549 126.731 27.4288 126.219 27.7764C125.723 28.1241 125.475 28.6457 125.475 29.341C125.475 30.019 125.715 30.5144 126.195 30.8273C126.691 31.1402 127.483 31.2967 128.571 31.2967ZM138.063 32.8873C138.175 32.8873 138.287 32.7657 138.399 32.5223C138.511 32.2789 138.567 31.8791 138.567 31.3228V18.8063C138.567 18.25 138.511 17.8589 138.399 17.6329C138.287 17.3895 138.175 17.2592 138.063 17.2418H141.759C141.647 17.2418 141.535 17.3635 141.423 17.6068C141.311 17.8502 141.255 18.2587 141.255 18.8324V29.9668C141.255 30.3493 141.295 30.584 141.375 30.6709C141.471 30.7404 141.759 30.7752 142.239 30.7752H148.311C149.239 30.7752 149.983 30.6622 150.543 30.4362C151.119 30.1928 151.495 29.9581 151.671 29.7321L151.191 32.3397V32.8873H138.063ZM159.109 32.8873C159.221 32.8873 159.333 32.7657 159.445 32.5223C159.557 32.2789 159.613 31.8791 159.613 31.3228V18.8063C159.613 18.25 159.557 17.8589 159.445 17.6329C159.333 17.3895 159.221 17.2592 159.109 17.2418H172.621V17.7633L173.101 20.2666C172.701 20.0754 171.997 19.8754 170.989 19.6668C169.981 19.4408 168.765 19.3278 167.341 19.3278H163.285C162.805 19.3278 162.517 19.3713 162.421 19.4582C162.341 19.5278 162.301 19.7451 162.301 20.1101V23.0828C162.301 23.4652 162.341 23.6912 162.421 23.7608C162.517 23.8303 162.797 23.8651 163.261 23.8651H167.221C168.149 23.8651 168.893 23.8129 169.453 23.7086C170.029 23.5869 170.405 23.4652 170.581 23.3435C170.469 23.6738 170.357 24.0997 170.245 24.6213C170.149 25.1254 170.101 25.5687 170.101 25.9511H163.261C162.797 25.9511 162.517 25.9859 162.421 26.0554C162.341 26.1076 162.301 26.3336 162.301 26.7334V31.3228C162.301 31.8964 162.357 32.305 162.469 32.5484C162.581 32.7743 162.693 32.8873 162.805 32.8873H159.109ZM174.783 32.8873C174.895 32.8873 174.999 32.7657 175.095 32.5223C175.207 32.2789 175.263 31.8791 175.263 31.3228V16.4595C175.263 15.9032 175.207 15.5121 175.095 15.2861C174.999 15.0427 174.895 14.9123 174.783 14.8949C175.487 14.8949 176.095 14.8428 176.607 14.7385C177.135 14.6168 177.503 14.4951 177.711 14.3734V31.3228C177.711 31.8791 177.759 32.2789 177.855 32.5223C177.967 32.7657 178.079 32.8873 178.191 32.8873H174.783ZM186.428 33.1481C184.828 33.1481 183.572 32.87 182.66 32.3137C181.764 31.7574 181.132 31.0012 180.764 30.0451C180.412 29.0889 180.236 28.0111 180.236 26.8116C180.236 25.5948 180.42 24.5083 180.788 23.5521C181.172 22.596 181.812 21.8398 182.708 21.2835C183.604 20.7099 184.844 20.423 186.428 20.423C188.012 20.423 189.252 20.7099 190.148 21.2835C191.044 21.8398 191.676 22.596 192.044 23.5521C192.428 24.5083 192.62 25.5948 192.62 26.8116C192.62 28.0111 192.436 29.0889 192.068 30.0451C191.716 31.0012 191.092 31.7574 190.196 32.3137C189.3 32.87 188.044 33.1481 186.428 33.1481ZM186.428 31.2967C187.42 31.2967 188.188 31.1229 188.732 30.7752C189.276 30.4275 189.652 29.9234 189.86 29.2628C190.068 28.5848 190.172 27.7678 190.172 26.8116C190.172 25.8555 190.06 25.0385 189.836 24.3605C189.628 23.6825 189.252 23.161 188.708 22.7959C188.18 22.4309 187.42 22.2484 186.428 22.2484C185.452 22.2484 184.692 22.4396 184.148 22.822C183.604 23.1871 183.22 23.7173 182.996 24.4127C182.788 25.0906 182.684 25.899 182.684 26.8377C182.684 27.7591 182.788 28.5587 182.996 29.2367C183.204 29.8973 183.58 30.4101 184.124 30.7752C184.668 31.1229 185.436 31.2967 186.428 31.2967ZM197.652 32.8873C197.764 32.8873 197.836 32.7743 197.868 32.5484C197.916 32.305 197.844 31.8964 197.652 31.3228C197.572 31.0968 197.42 30.697 197.196 30.1233C196.972 29.5496 196.708 28.889 196.404 28.1415C196.116 27.3766 195.812 26.6117 195.492 25.8468C195.172 25.0645 194.876 24.3605 194.604 23.7347C194.332 23.0915 194.116 22.6134 193.956 22.3005C193.684 21.7442 193.436 21.3444 193.212 21.101C192.988 20.8403 192.828 20.7012 192.732 20.6838H196.644C196.5 20.6838 196.404 20.8055 196.356 21.0489C196.308 21.2922 196.404 21.7094 196.644 22.3005C196.772 22.596 196.948 23.048 197.172 23.6564C197.396 24.2475 197.644 24.9342 197.916 25.7165C198.204 26.4813 198.492 27.2636 198.78 28.0633C199.068 28.8629 199.332 29.6105 199.572 30.3058H199.596C199.836 29.5931 200.092 28.8369 200.364 28.0372C200.636 27.2202 200.9 26.4205 201.156 25.6382C201.428 24.8559 201.668 24.1693 201.876 23.5782C202.084 22.9698 202.244 22.5265 202.356 22.2484C202.58 21.6921 202.668 21.2922 202.62 21.0489C202.572 20.8055 202.484 20.6838 202.356 20.6838H206.196C206.052 20.6838 205.956 20.8055 205.908 21.0489C205.86 21.2922 205.956 21.7094 206.196 22.3005C206.324 22.596 206.492 23.048 206.7 23.6564C206.924 24.2475 207.164 24.9342 207.42 25.7165C207.692 26.4813 207.964 27.2636 208.236 28.0633C208.508 28.8629 208.756 29.6105 208.98 30.3058H209.004C209.276 29.5931 209.564 28.8369 209.868 28.0372C210.172 27.2202 210.476 26.4205 210.78 25.6382C211.084 24.8559 211.348 24.1693 211.572 23.5782C211.812 22.9698 211.988 22.5265 212.1 22.2484C212.324 21.6921 212.412 21.2922 212.364 21.0489C212.316 20.8055 212.228 20.6838 212.1 20.6838H215.868C215.772 20.6838 215.62 20.8055 215.412 21.0489C215.22 21.2748 214.996 21.666 214.74 22.2223C214.596 22.5178 214.388 22.9698 214.116 23.5782C213.844 24.1867 213.54 24.8733 213.204 25.6382C212.868 26.3857 212.54 27.1332 212.22 27.8808C211.9 28.6283 211.62 29.3149 211.38 29.9408C211.14 30.5492 210.98 31.0099 210.9 31.3228C210.756 31.8964 210.7 32.305 210.732 32.5484C210.764 32.7743 210.82 32.8873 210.9 32.8873H207.06C207.172 32.8873 207.244 32.7743 207.276 32.5484C207.324 32.305 207.252 31.8964 207.06 31.3228C207.012 31.1663 206.892 30.81 206.7 30.2537C206.508 29.6974 206.276 29.0281 206.004 28.2458C205.732 27.4462 205.452 26.6204 205.164 25.7686C204.876 24.9168 204.596 24.1084 204.324 23.3435H204.252C203.996 24.0737 203.716 24.8559 203.412 25.6904C203.108 26.5074 202.82 27.3071 202.548 28.0894C202.276 28.8543 202.044 29.5322 201.852 30.1233C201.66 30.697 201.54 31.0968 201.492 31.3228C201.348 31.8964 201.292 32.305 201.324 32.5484C201.356 32.7743 201.412 32.8873 201.492 32.8873H197.652Z" fill="black"/>
<defs>
<clipPath id="clip0_73_81">
<rect width="55" height="53.2384" fill="white" transform="translate(0 0.248932)"/>
</clipPath>
</defs>
</svg>
